<svg width="65" height="63" viewBox="0 0 65 63" fill="none" xmlns="http://www.w3.org/2000/svg">
<g opacity="0.78">
<mask id="mask0_1_870" style="mask-type:alpha" maskUnits="userSpaceOnUse" x="0" y="0" width="65" height="63">
<path d="M45.9133 62.497C46.4285 62.6927 46.9795 62.7831 47.5321 62.7624C48.0847 62.7417 48.627 62.6104 49.1252 62.3767L62.4556 56.1267C63.1421 55.8046 63.7214 55.3002 64.1268 54.6715C64.5322 54.0429 64.7472 53.3154 64.7471 52.573V10.1931C64.7472 9.45065 64.5321 8.72327 64.1268 8.09463C63.7214 7.46599 63.1421 6.96164 62.4556 6.63958L49.1255 0.389333C48.3723 0.0361606 47.525 -0.0801242 46.7009 0.0565747C45.8769 0.193274 45.1168 0.576195 44.526 1.15234L19.0066 23.8383L7.89061 15.6165C7.3892 15.2456 6.77035 15.0575 6.14146 15.0847C5.51256 15.112 4.9133 15.3529 4.44764 15.7657L0.882547 18.9258C-0.293039 19.9677 -0.294308 21.7698 0.8795 22.8133L10.5196 31.383L0.8795 39.9525C-0.294308 40.9963 -0.293039 42.7981 0.882547 43.8402L4.44764 47.0001C4.91327 47.4129 5.51251 47.6539 6.14141 47.6812C6.77031 47.7085 7.38917 47.5204 7.89061 47.1495L19.0066 38.9275L44.526 61.6135C44.9205 61.9985 45.393 62.2994 45.9133 62.497ZM48.5702 17.0609L29.2068 31.383L48.5702 45.7049V17.0609Z" fill="white"/>
</mask>
<g mask="url(#mask0_1_870)">
<path d="M62.4954 6.64928L49.1547 0.390373C48.4012 0.036915 47.5537 -0.0796175 46.7293 0.0569015C45.9049 0.193421 45.1444 0.576241 44.5531 1.15239L0.880221 39.9525C-0.29435 40.9963 -0.292826 42.7982 0.883267 43.8403L4.45065 47.0002C4.91669 47.4131 5.51631 47.654 6.14557 47.6813C6.77483 47.7086 7.39406 47.5205 7.8959 47.1496L60.488 8.27301C62.2524 6.96893 64.7866 8.19508 64.7866 10.353V10.202C64.7866 9.45976 64.5716 8.73254 64.1663 8.10404C63.7609 7.47554 63.1818 6.97129 62.4954 6.64928Z" fill="#0065A9"/>
<path d="M62.4954 56.1159L49.1547 62.3749C48.4012 62.7282 47.5537 62.8447 46.7293 62.7082C45.9049 62.5717 45.1445 62.1889 44.5531 61.6128L0.880221 22.8127C-0.29435 21.7691 -0.292826 19.967 0.883267 18.9252L4.45065 15.7651C4.91672 15.3522 5.51636 15.1113 6.14562 15.084C6.77488 15.0568 7.39409 15.2449 7.8959 15.6159L60.488 54.4922C62.2524 55.7963 64.7866 54.5701 64.7866 52.412V52.5632C64.7866 53.3055 64.5716 54.0327 64.1662 54.6612C63.7609 55.2897 63.1818 55.7939 62.4954 56.1159Z" fill="#007ACC"/>
<path d="M49.1125 62.3798C48.3589 62.733 47.5113 62.8493 46.6868 62.7127C45.8624 62.5761 45.1019 62.1932 44.5105 61.617C46.0037 63.0718 48.5573 62.0413 48.5573 59.9834V2.78904C48.5573 0.731112 46.0037 -0.299339 44.5105 1.15566C45.1019 0.57947 45.8624 0.196552 46.6868 0.059863C47.5112 -0.0768265 48.3589 0.039466 49.1125 0.392659L62.451 6.64291C63.1378 6.96474 63.7174 7.46901 64.123 8.09767C64.5286 8.72634 64.7438 9.45383 64.7438 10.1964V52.5765C64.7438 54.0919 63.8526 55.4734 62.451 56.13L49.1125 62.38V62.3798Z" fill="#1F9CF0"/>
<path d="M45.9133 62.4964C46.4285 62.6921 46.9796 62.7824 47.5321 62.7618C48.0847 62.7411 48.627 62.6098 49.1252 62.3762L62.4553 56.1259C63.1419 55.8039 63.7213 55.2996 64.1267 54.6709C64.5321 54.0423 64.7472 53.3149 64.7471 52.5724V10.1925C64.7472 9.45009 64.5321 8.72271 64.1268 8.09407C63.7214 7.46543 63.1421 6.96107 62.4556 6.63902L49.125 0.388521C48.3718 0.0354046 47.5246 -0.0808494 46.7006 0.0558482C45.8766 0.192546 45.1166 0.575435 44.5257 1.15152L19.0066 23.8378L7.89061 15.6159C7.3892 15.2451 6.77035 15.0569 6.14146 15.0842C5.51256 15.1114 4.9133 15.3523 4.44764 15.7651L0.882547 18.9253C-0.293039 19.9671 -0.294308 21.7692 0.8795 22.8128L10.5196 31.3825L0.8795 39.9519C-0.294308 40.9957 -0.293039 42.7976 0.882547 43.8397L4.44764 46.9995C4.91327 47.4124 5.51251 47.6533 6.14141 47.6806C6.77031 47.7079 7.38917 47.5198 7.89061 47.149L19.0066 38.9269L44.5257 61.6129C44.9204 61.998 45.3929 62.2989 45.9133 62.4964ZM48.5702 17.0601L29.2068 31.3825L48.5702 45.7044V17.0603V17.0601Z" fill="url(#paint0_linear_1_870)" fill-opacity="0.25"/>
</g>
</g>
<defs>
<linearGradient id="paint0_linear_1_870" x1="32.3735" y1="0.00012207" x2="32.3735" y2="62.7647" gradientUnits="userSpaceOnUse">
<stop stop-color="white"/>
<stop offset="1" stop-color="white" stop-opacity="0"/>
</linearGradient>
</defs>
</svg>
